<!-- icons.svg -->
<svg xmlns="http://www.w3.org/2000/svg" style="display: none;">

  <symbol id="List" viewBox="0 0 16 16">
      <path fill-rule="nonzero" d="M2.5 11.5C2.36739 11.5 2.24021 11.5527 2.14645 11.6464C2.05268 11.7402 2 11.8674 2 12C2 12.1326 2.05268 12.2598 2.14645 12.3536C2.24021 12.4473 2.36739 12.5 2.5 12.5H13.5C13.6326 12.5 13.7598 12.4473 13.8536 12.3536C13.9473 12.2598 14 12.1326 14 12C14 11.8674 13.9473 11.7402 13.8536 11.6464C13.7598 11.5527 13.6326 11.5 13.5 11.5H2.5Z M2.5 3.5C2.36739 3.5 2.24021 3.55268 2.14645 3.64645C2.05268 3.74021 2 3.86739 2 4C2 4.13261 2.05268 4.25979 2.14645 4.35355C2.24021 4.44732 2.36739 4.5 2.5 4.5H13.5C13.6326 4.5 13.7598 4.44732 13.8536 4.35355C13.9473 4.25979 14 4.13261 14 4C14 3.86739 13.9473 3.74021 13.8536 3.64645C13.7598 3.55268 13.6326 3.5 13.5 3.5H2.5Z M2.5 7.5C2.36739 7.5 2.24021 7.55268 2.14645 7.64645C2.05268 7.74021 2 7.86739 2 8C2 8.13261 2.05268 8.25979 2.14645 8.35355C2.24021 8.44732 2.36739 8.5 2.5 8.5H13.5C13.6326 8.5 13.7598 8.44732 13.8536 8.35355C13.9473 8.25979 14 8.13261 14 8C14 7.86739 13.9473 7.74021 13.8536 7.64645C13.7598 7.55268 13.6326 7.5 13.5 7.5H2.5Z"></path>
  </symbol>

  <symbol id="House" viewBox="0 0 16 16">
    <path fill-rule="nonzero" d="M8 1.67725C7.75721 1.67725 7.51436 1.76397 7.32495 1.93726L2.32617 6.47986C2.32379 6.48203 2.32143 6.48423 2.31909 6.48645C2.11974 6.67482 2.00463 6.93622 2.00012 7.21045C2.00006 7.21318 2.00002 7.2159 2 7.21863V12.9999C2.00007 13.5462 2.45357 13.9998 2.99988 13.9999C2.99984 13.9999 2.99992 13.9999 2.99988 13.9999H6C6.54636 13.9999 7 13.5462 7 12.9999V9.99988H9V12.9999C9 13.5462 9.45364 13.9999 10 13.9999H13C13.5464 13.9999 14 13.5462 14 12.9999V7.21863C14 7.21594 13.9999 7.21326 13.9999 7.21057C13.9954 6.93627 13.8802 6.67471 13.6808 6.48633C13.6785 6.48415 13.6762 6.48199 13.6738 6.47986L8.67505 1.93726C8.48564 1.76397 8.24279 1.67725 8 1.67725ZM8 2.67505C8.00041 2.67542 8.00081 2.67578 8.00122 2.67615L12.9941 7.21338C12.9979 7.21694 12.9998 7.22129 13 7.22644V12.9999H10V9.99988C10 9.45352 9.54636 8.99988 9 8.99988H7C6.45363 8.99988 6 9.45352 6 9.99988V12.9999H3.00012L3 7.22656C3.00015 7.22145 3.00206 7.21707 3.00573 7.2135L7.99878 2.67615C7.99919 2.67578 7.99959 2.67542 8 2.67505Z"></path>
  </symbol>

  <symbol id="Star" viewBox="0 0 16 16">
    <path fill-rule="nonzero" d="M7.99975 0.996094C7.57318 0.996128 7.18836 1.26571 7.04259 1.66663L7.04784 1.65295L5.67284 5.11548C5.67142 5.119 5.67004 5.12254 5.66869 5.1261C5.66565 5.13431 5.66096 5.1378 5.65221 5.13831L5.64916 5.13855L1.96166 5.37598V5.37598C1.51229 5.40516 1.16169 5.73277 1.04735 6.10218C0.933105 6.47128 1.03046 6.92969 1.37353 7.21521L4.19848 9.57142L4.20007 9.57276C4.21392 9.58422 4.21899 9.59964 4.21471 9.61707V9.61707L3.37182 12.9387C3.2506 13.4131 3.44889 13.8848 3.78808 14.1426C4.12727 14.4004 4.64722 14.4608 5.06213 14.1968L7.99255 12.3412V12.3412C7.99764 12.338 8.00161 12.3375 8.00671 12.3407V12.3407L11.157 14.3408L11.1582 14.3417C11.5342 14.5789 12.0093 14.5257 12.3175 14.2924C12.6257 14.059 12.8055 13.6299 12.6971 13.2023V13.2023L11.7853 9.61706C11.781 9.59967 11.786 9.58428 11.7998 9.57287L11.8015 9.57141L14.6261 7.21545C14.9694 6.92994 15.0669 6.4714 14.9526 6.10217C14.8383 5.73276 14.4881 5.40527 14.0387 5.37609V5.37609L10.3508 5.13854L10.3476 5.1383C10.3389 5.13779 10.3343 5.13439 10.3313 5.12621C10.3299 5.12262 10.3286 5.11904 10.3271 5.11547L8.95213 1.65295L8.95738 1.66674C8.81167 1.26574 8.4264 0.996056 7.99975 0.996094ZM7.99987 1.99609V1.99609C8.00935 1.99609 8.01434 1.99939 8.01758 2.0083C8.01926 2.01292 8.02101 2.01752 8.02283 2.02209L9.39783 5.4845L9.39368 5.47375C9.53379 5.85173 9.88715 6.11327 10.2896 6.13672L13.9741 6.37402C14.006 6.37609 13.9898 6.37346 13.9973 6.39782C14.0048 6.42217 14.0118 6.42588 13.9868 6.44665L13.986 6.44728L11.1627 8.80214C10.8543 9.05717 10.7183 9.46962 10.8147 9.85805L10.8154 9.86073L11.7278 13.4478C11.7382 13.4889 11.7274 13.4848 11.7137 13.4951C11.7001 13.5055 11.722 13.5149 11.6918 13.4959L8.54296 11.4967C8.21256 11.2868 7.78728 11.2867 7.4569 11.4967V11.4967L4.52623 13.3525L4.52526 13.3532C4.45892 13.3954 4.43836 13.3808 4.39318 13.3465C4.34799 13.3121 4.31816 13.2744 4.34068 13.1863V13.1863L5.18468 9.86049L5.18529 9.8578C5.28156 9.46947 5.14573 9.05742 4.83752 8.80237L2.01403 6.44727L2.01318 6.44664C1.98816 6.42587 1.99514 6.42216 2.00268 6.39781C2.01021 6.37347 1.99424 6.37596 2.02612 6.37389L5.71337 6.13646L5.71032 6.13659C6.11276 6.11317 6.46615 5.85184 6.60632 5.47387L7.97717 2.02209C7.97898 2.01751 7.98073 2.01292 7.98242 2.00829C7.98567 1.99933 7.99034 1.99609 7.99987 1.99609Z"></path>
  </symbol>

  <symbol id="GridFour" viewBox="0 0 16 16">
    <path fill-rule="nonzero" d="M3.25 2.25C2.70364 2.25 2.25 2.70364 2.25 3.25V12.75C2.25 13.2964 2.70364 13.75 3.25 13.75H12.75C13.2964 13.75 13.75 13.2964 13.75 12.75V3.25C13.75 2.70364 13.2964 2.25 12.75 2.25H3.25ZM3.25 3.25H7.5V7.5H3.25V3.25ZM8.5 3.25H12.75V7.5H8.5V3.25ZM3.25 8.5H7.5V12.75H3.25V8.5ZM8.5 8.5H12.75V12.75H8.5V8.5Z"></path>
  </symbol>

  <symbol id="Share" viewBox="0 0 16 16">
    <path fill-rule="nonzero" d="M10.4999 6C7.53819 6.00085 4.94618 8.00758 4.20349 10.8746C4.17025 11.003 4.18936 11.1393 4.25661 11.2536C4.32387 11.3679 4.43377 11.4508 4.56213 11.484C4.6905 11.5173 4.82682 11.4981 4.94109 11.4309C5.05537 11.3636 5.13826 11.2537 5.17151 11.1254C5.80119 8.69457 7.98899 7.00077 10.5 7H14C14.1326 7 14.2598 6.94732 14.3536 6.85355C14.4473 6.75979 14.5 6.63261 14.5 6.5C14.5 6.36739 14.4473 6.24021 14.3536 6.14645C14.2598 6.05268 14.1326 6 14 6H10.5C10.5 6 10.4999 6 10.4999 6H10.4999ZM11 3C10.8674 3.00002 10.7402 3.05271 10.6465 3.14648C10.5527 3.24025 10.5001 3.36741 10.5001 3.5C10.5001 3.63259 10.5527 3.75975 10.6465 3.85352L13.293 6.5L10.6465 9.14648C10.5527 9.24025 10.5001 9.36741 10.5001 9.5C10.5001 9.63259 10.5527 9.75975 10.6465 9.85352C10.7402 9.94726 10.8674 9.99992 11 9.99992C11.1326 9.99992 11.2598 9.94726 11.3535 9.85352L14.3535 6.85352C14.4472 6.75974 14.4999 6.63259 14.4999 6.5C14.4999 6.36741 14.4472 6.24026 14.3535 6.14648L11.3535 3.14648C11.2598 3.05271 11.1326 3.00002 11 3ZM2 5C1.86739 5 1.74021 5.05268 1.64645 5.14645C1.55268 5.24021 1.5 5.36739 1.5 5.5V13C1.5 13 1.5 13.0001 1.5 13.0001C1.50007 13.5464 1.95357 13.9999 2.49988 14C2.49992 14 2.49996 14 2.5 14H12C12.1326 14 12.2598 13.9473 12.3536 13.8536C12.4473 13.7598 12.5 13.6326 12.5 13.5C12.5 13.3674 12.4473 13.2402 12.3536 13.1464C12.2598 13.0527 12.1326 13 12 13H2.50012H2.5V5.5C2.5 5.36739 2.44732 5.24021 2.35355 5.14645C2.25979 5.05268 2.13261 5 2 5Z"></path>
  </symbol>

  <symbol id="Bell" viewBox="0 0 16 16">
    <path fill-rule="nonzero" d="M6 11.5C5.86739 11.5 5.74021 11.5527 5.64645 11.6464C5.55268 11.7402 5.5 11.8674 5.5 12V12.5C5.49987 13.8749 6.62514 15.0001 8 15C8.66281 15 9.29903 14.7365 9.7677 14.2678C10.2364 13.7991 10.5 13.1628 10.5 12.5V12C10.5 11.8674 10.4473 11.7402 10.3536 11.6464C10.2598 11.5527 10.1326 11.5 10 11.5C9.86739 11.5 9.74021 11.5527 9.64645 11.6464C9.55268 11.7402 9.5 11.8674 9.5 12V12.5C9.50001 12.898 9.34212 13.2793 9.06067 13.5607C8.77926 13.8421 8.398 14 8 14C7.16564 14.0001 6.49992 13.3344 6.5 12.5V12C6.5 11.8674 6.44732 11.7402 6.35355 11.6464C6.25978 11.5527 6.13261 11.5 6 11.5Z M8.03394 1.50012C5.26871 1.48474 3.00893 3.73483 3.01245 6.5V7.00014C3.01245 9.16781 2.56115 10.3731 2.19849 10.9995V10.9995C2.11088 11.1513 2.06437 11.324 2.06421 11.4992C2.06387 12.0445 2.51528 12.498 3.06055 12.5L3.06238 12.5002H12.9374L12.9392 12.5C13.1144 12.4994 13.2863 12.4529 13.4377 12.3649C13.9096 12.0911 14.0746 11.4723 13.8016 10.9999V10.9999C13.4389 10.3735 12.9874 9.16781 12.9874 7.00015V6.5563C12.9874 3.80889 10.7849 1.52098 8.03503 1.50015L8.03394 1.50012ZM8.02734 2.5V2.5C10.2272 2.51694 11.9874 4.34136 11.9874 6.55628V7.00012C11.9874 9.30695 12.4736 10.7013 12.9358 11.5C12.9358 11.5 12.9383 11.4986 12.9358 11.5L3.06434 11.5001V11.5001C3.52659 10.7015 4.01246 9.30699 4.01246 7.00013V6.50013V6.50013C4.00929 4.27789 5.80529 2.48824 8.02734 2.5Z"></path>
  </symbol>

  <symbol id="CheckSquare" viewBox="0 0 16 16">
    <path fill-rule="nonzero" d="M10.7617 6.00012C10.6292 5.99702 10.5008 6.04668 10.4049 6.13818L7.08154 9.30872L5.59546 7.88855C5.49959 7.79693 5.37126 7.74715 5.23869 7.75014C5.10612 7.75314 4.98017 7.80868 4.88855 7.90454C4.79693 8.00041 4.74715 8.12874 4.75014 8.26131C4.75314 8.39388 4.80868 8.51983 4.90454 8.61145L6.73584 10.3615C6.82881 10.4503 6.95244 10.4999 7.08104 10.5C7.20964 10.5 7.33332 10.4506 7.42639 10.3618L11.0951 6.86182C11.1426 6.81651 11.1807 6.76227 11.2073 6.70222C11.2338 6.64217 11.2483 6.57748 11.2499 6.51183C11.2514 6.44619 11.24 6.38089 11.2163 6.31965C11.1927 6.25841 11.1571 6.20243 11.1118 6.15492C11.0665 6.10739 11.0122 6.06925 10.9522 6.04269C10.8921 6.01614 10.8274 6.00166 10.7617 6.00012Z M3 2C2.45364 2 2 2.45364 2 3V13C2 13.5464 2.45364 14 3 14H13C13.5464 14 14 13.5464 14 13V3C14 2.45364 13.5464 2 13 2H3ZM3 3H13V13H3V3Z"></path>
  </symbol>

  <symbol id="Target" viewBox="0 0 16 16">
    <path fill-rule="nonzero" d="M7.72273 4.51998C7.12722 4.56759 6.53883 4.76765 6.01985 5.12594C6.01985 5.12589 6.01985 5.12598 6.01985 5.12594C3.84116 6.63025 4.09172 9.97634 6.47004 11.1395C8.84836 12.3026 11.6433 10.4461 11.4931 7.80282C11.4894 7.73727 11.4728 7.67309 11.4443 7.61394C11.4157 7.5548 11.3758 7.50186 11.3268 7.45814C11.2778 7.41442 11.2207 7.38078 11.1587 7.35913C11.0967 7.33749 11.0311 7.32827 10.9655 7.332C10.8331 7.33952 10.7092 7.39932 10.6209 7.49823C10.5326 7.59715 10.4872 7.72709 10.4947 7.85946C10.6042 9.78624 8.64299 11.089 6.90937 10.2412C5.17579 9.39334 4.99994 7.0455 6.58796 5.94894C7.58036 5.26382 8.91187 5.38383 9.76582 6.23532C9.81232 6.28168 9.8675 6.31843 9.92821 6.34347C9.98891 6.36851 10.054 6.38134 10.1196 6.38124C10.1853 6.38114 10.2503 6.3681 10.3109 6.34288C10.3715 6.31765 10.4266 6.28073 10.473 6.23422C10.5666 6.14031 10.619 6.01307 10.6188 5.88048C10.6186 5.74789 10.5658 5.62081 10.4719 5.52719C9.72758 4.78503 8.71524 4.44064 7.72273 4.51998Z M8.27131 1.49728C6.69195 1.42794 5.08767 1.92948 3.79512 3.01657C1.21008 5.19068 0.720799 8.99335 2.66853 11.7535C4.61626 14.5137 8.36303 15.3272 11.2778 13.6203C14.1926 11.9134 15.3186 8.24657 13.8638 5.19711C13.8067 5.07744 13.7044 4.98536 13.5795 4.94111C13.4545 4.89686 13.317 4.90407 13.1973 4.96115C13.0777 5.01823 12.9855 5.12051 12.9413 5.24551C12.897 5.3705 12.9042 5.50796 12.9613 5.62765C14.1962 8.21635 13.2467 11.3085 10.7725 12.7574C8.29845 14.2062 5.13925 13.5205 3.48555 11.177C1.83184 8.83348 2.24458 5.62724 4.43879 3.78183C6.50435 2.04461 9.48832 2.06943 11.5206 3.77243L7.64656 7.64645C7.55281 7.74021 7.50015 7.86737 7.50015 7.99996C7.50015 8.13255 7.55281 8.25972 7.64656 8.35348C7.74032 8.44723 7.86748 8.49989 8.00007 8.49989C8.13266 8.49989 8.25982 8.44723 8.35359 8.35348L14.3536 2.35348C14.4473 2.25972 14.5 2.13255 14.5 1.99996C14.5 1.86738 14.4473 1.74021 14.3536 1.64645C14.2598 1.5527 14.1327 1.50004 14.0001 1.50004C13.8675 1.50004 13.7403 1.5527 13.6466 1.64645L12.2275 3.06552C11.0919 2.08879 9.69294 1.55969 8.27131 1.49728Z"></path>
  </symbol>

  <symbol id="CalendarFeature" viewBox="0 0 16 16">
    <path fill-rule="evenodd" d="M5.75 7.5C5.61739 7.5 5.49021 7.55268 5.39645 7.64645C5.30268 7.74021 5.25 7.86739 5.25 8C5.25 8.13261 5.30268 8.25979 5.39645 8.35355C5.49021 8.44732 5.61739 8.5 5.75 8.5H6.45972L6.10962 8.93762C6.05075 9.01123 6.01388 9.09999 6.00326 9.19365C5.99265 9.28731 6.00872 9.38206 6.04963 9.46698C6.09054 9.55189 6.15462 9.62352 6.23448 9.6736C6.31433 9.72367 6.40672 9.75016 6.50098 9.75C6.87529 9.74929 7.10696 10.0953 6.96375 10.4412C6.96379 10.4411 6.9637 10.4412 6.96375 10.4412C6.89965 10.5961 6.76358 10.7079 6.59912 10.7405C6.59916 10.7405 6.59908 10.7405 6.59912 10.7405C6.43467 10.7731 6.26622 10.7219 6.14782 10.6032C6.10146 10.5567 6.04638 10.5197 5.98575 10.4945C5.92512 10.4693 5.86011 10.4563 5.79445 10.4562C5.72878 10.4561 5.66374 10.4689 5.60304 10.494C5.54234 10.519 5.48716 10.5558 5.44067 10.6022C5.39417 10.6485 5.35726 10.7036 5.33204 10.7642C5.30683 10.8249 5.2938 10.8899 5.29371 10.9556C5.29362 11.0212 5.30646 11.0863 5.33151 11.147C5.35656 11.2077 5.39332 11.2628 5.43969 11.3093C5.79332 11.6639 6.30238 11.8188 6.79357 11.7213C7.28484 11.6239 7.6962 11.2865 7.88769 10.8237C8.17053 10.1406 7.88369 9.40065 7.32678 9.01697L7.89038 8.31238C7.9492 8.23883 7.98605 8.15017 7.9967 8.0566C8.00735 7.96303 7.99136 7.86835 7.95057 7.78347C7.90979 7.69858 7.84585 7.62694 7.76614 7.57679C7.68643 7.52665 7.59418 7.50003 7.5 7.5H5.75Z M10.0472 7.50232C9.92336 7.49052 9.79953 7.52534 9.69995 7.59998L8.69995 8.34997C8.64741 8.38937 8.60315 8.43874 8.56969 8.49524C8.53624 8.55175 8.51424 8.61429 8.50495 8.6793C8.49567 8.74431 8.49928 8.81051 8.51559 8.87413C8.53189 8.93774 8.56057 8.99752 8.59998 9.05005C8.63937 9.10259 8.68874 9.14685 8.74524 9.1803C8.80175 9.21376 8.86429 9.23576 8.9293 9.24505C8.99431 9.25433 9.06052 9.25072 9.12413 9.23441C9.18774 9.21811 9.24752 9.18943 9.30005 9.15002L9.5 9V11.25C9.5 11.3826 9.55268 11.5098 9.64645 11.6036C9.74021 11.6973 9.86739 11.75 10 11.75C10.1326 11.75 10.2598 11.6973 10.3536 11.6036C10.4473 11.5098 10.5 11.3826 10.5 11.25V8C10.5 7.87559 10.4536 7.75566 10.3698 7.66363C10.2861 7.5716 10.1711 7.51409 10.0472 7.50232Z M5 1C4.86739 1 4.74021 1.05268 4.64645 1.14645C4.55268 1.24021 4.5 1.36739 4.5 1.5V2H3C2.45364 2 2 2.45364 2 3V13C2 13.5464 2.45364 14 3 14H13C13.5464 14 14 13.5464 14 13V3C14 2.45364 13.5464 2 13 2H11.5V1.5C11.5 1.36739 11.4473 1.24021 11.3536 1.14645C11.2598 1.05268 11.1326 1 11 1C10.8674 1 10.7402 1.05268 10.6464 1.14645C10.5527 1.24021 10.5 1.36739 10.5 1.5V2H5.5V1.5C5.5 1.36739 5.44732 1.24021 5.35355 1.14645C5.25979 1.05268 5.13261 1 5 1ZM3 3H4.5V3.5C4.5 3.63261 4.55268 3.75979 4.64645 3.85355C4.74021 3.94732 4.86739 4 5 4C5.13261 4 5.25979 3.94732 5.35355 3.85355C5.44732 3.75979 5.5 3.63261 5.5 3.5V3H10.5V3.5C10.5 3.63261 10.5527 3.75979 10.6464 3.85355C10.7402 3.94732 10.8674 4 11 4C11.1326 4 11.2598 3.94732 11.3536 3.85355C11.4473 3.75979 11.5 3.63261 11.5 3.5V3H13V5H3V3ZM3 6H13V13H3V6Z"></path>
  </symbol>

  <symbol id="BookOpen" viewBox="0 0 16 16">
    <path fill-rule="nonzero" d="M2 3C1.45364 3 1 3.45364 1 4V12C1 12.5464 1.45364 13 2 13H6C6.398 13 6.77926 13.1579 7.06067 13.4393C7.34212 13.7207 7.50001 14.102 7.5 14.5C7.50186 14.6314 7.55535 14.7568 7.64892 14.849C7.74249 14.9413 7.8686 14.993 8 14.993C8.1314 14.993 8.25751 14.9413 8.35108 14.849C8.44465 14.7568 8.49814 14.6314 8.5 14.5V5.5C8.50013 4.12514 7.37486 2.99987 6 3H2ZM2 4H6C6.83436 3.99992 7.50008 4.66564 7.5 5.5V12.5127C7.06877 12.1874 6.54629 12 6 12H2V4Z M10 3C8.62514 2.99987 7.49987 4.12514 7.5 5.5C7.5 5.63261 7.55268 5.75979 7.64645 5.85355C7.74021 5.94732 7.86739 6 8 6C8.13261 6 8.25979 5.94732 8.35355 5.85355C8.44732 5.75979 8.5 5.63261 8.5 5.5C8.49994 4.66564 9.16564 3.99992 10 4H14V12H10C9.33719 12 8.70097 12.2635 8.2323 12.7322C7.76355 13.2009 7.49998 13.8371 7.5 14.5C7.5 14.6326 7.55268 14.7598 7.64645 14.8536C7.74021 14.9473 7.86739 15 8 15C8.13261 15 8.25979 14.9473 8.35355 14.8536C8.44732 14.7598 8.5 14.6326 8.5 14.5C8.49999 14.102 8.65788 13.7207 8.93933 13.4393C9.22074 13.1579 9.602 13 10 13H14C14.5464 13 15 12.5464 15 12V4C15 3.45364 14.5464 3 14 3H10Z"></path>
  </symbol>

  <symbol id="ShoppingBagOpen" viewBox="0 0 16 16">
    <path fill-rule="nonzero" d="M5.5 6.5C5.36739 6.5 5.24021 6.55268 5.14645 6.64645C5.05268 6.74021 5 6.86739 5 7C4.99999 7.79543 5.31621 8.55876 5.87866 9.12122C7.04599 10.2888 8.95401 10.2888 10.1213 9.12122C10.6838 8.55877 11 7.79544 11 7C11 6.86739 10.9473 6.74021 10.8536 6.64645C10.7598 6.55268 10.6326 6.5 10.5 6.5C10.3674 6.5 10.2402 6.55268 10.1464 6.64645C10.0527 6.74021 10 6.86739 10 7C10 7.53061 9.7894 8.039 9.41418 8.41418C8.62902 9.1995 7.37098 9.1995 6.58582 8.41418C6.2106 8.03899 6 7.53062 6 7C6 6.86739 5.94732 6.74021 5.85355 6.64645C5.75979 6.55268 5.63261 6.5 5.5 6.5Z M2.5 2.5C1.95364 2.5 1.5 2.95364 1.5 3.5V12.5C1.5 13.0464 1.95364 13.5 2.5 13.5H13.5C14.0464 13.5 14.5 13.0464 14.5 12.5V3.5C14.5 2.95364 14.0464 2.5 13.5 2.5H2.5ZM2.5 3.5H13.5V4.5H2.5V3.5ZM2.5 5.5H13.5V12.5H2.5V5.5Z"></path>
  </symbol>

  <symbol id="ChevronDown" viewBox="0 0 16 16">
    <path fill-rule="nonzero" d="M3.64645 5.64645C3.84171 5.45118 4.15829 5.45118 4.35355 5.64645L8 9.29289L11.6464 5.64645C11.8417 5.45118 12.1583 5.45118 12.3536 5.64645C12.5488 5.84171 12.5488 6.15829 12.3536 6.35355L8.35355 10.3536C8.15829 10.5488 7.84171 10.5488 7.64645 10.3536L3.64645 6.35355C3.45118 6.15829 3.45118 5.84171 3.64645 5.64645Z"></path>
  </symbol>

  <symbol id="Plus" viewBox="0 0 16 16">
    <path fill-rule="nonzero" d="M8 2C7.86739 2 7.74021 2.05268 7.64645 2.14645C7.55268 2.24021 7.5 2.36739 7.5 2.5V7.5H2.5C2.36739 7.5 2.24021 7.55268 2.14645 7.64645C2.05268 7.74021 2 7.86739 2 8C2 8.13261 2.05268 8.25979 2.14645 8.35355C2.24021 8.44732 2.36739 8.5 2.5 8.5H7.5V13.5C7.5 13.6326 7.55268 13.7598 7.64645 13.8536C7.74021 13.9473 7.86739 14 8 14C8.13261 14 8.25979 13.9473 8.35355 13.8536C8.44732 13.7598 8.5 13.6326 8.5 13.5V8.5H13.5C13.6326 8.5 13.7598 8.44732 13.8536 8.35355C13.9473 8.25979 14 8.13261 14 8C14 7.86739 13.9473 7.74021 13.8536 7.64645C13.7598 7.55268 13.6326 7.5 13.5 7.5H8.5V2.5C8.5 2.36739 8.44732 2.24021 8.35355 2.14645C8.25979 2.05268 8.13261 2 8 2Z"></path>
  </symbol>

  <symbol id="UploadSimple" viewBox="0 0 16 16">
    <path fill-rule="nonzero" d="M8 2C7.8674 2.00002 7.74024 2.05271 7.64648 2.14648L5.02148 4.77148C4.92774 4.86525 4.87508 4.99241 4.87508 5.125C4.87508 5.25759 4.92774 5.38475 5.02148 5.47852C5.11525 5.57226 5.24241 5.62492 5.375 5.62492C5.50759 5.62492 5.63475 5.57226 5.72852 5.47852L7.5 3.70703V9.5C7.5 9.63261 7.55268 9.75979 7.64645 9.85355C7.74021 9.94732 7.86739 10 8 10C8.13261 10 8.25979 9.94732 8.35355 9.85355C8.44732 9.75979 8.5 9.63261 8.5 9.5V3.70703L10.2715 5.47852C10.3652 5.57226 10.4924 5.62492 10.625 5.62492C10.7576 5.62492 10.8848 5.57226 10.9785 5.47852C11.0723 5.38475 11.1249 5.25759 11.1249 5.125C11.1249 4.99241 11.0723 4.86525 10.9785 4.77148L8.35352 2.14648C8.34867 2.14437 8.34378 2.14234 8.33887 2.14038C8.24777 2.05235 8.12666 2.00218 8 2Z M2.5 9C2.36739 9 2.24021 9.05268 2.14645 9.14645C2.05268 9.24021 2 9.36739 2 9.5V13C2.00007 13.5463 2.45357 13.9999 2.99988 14C2.99984 14 2.99992 14 2.99988 14H13C13.5464 14 14 13.5464 14 13V9.5C14 9.36739 13.9473 9.24021 13.8536 9.14645C13.7598 9.05268 13.6326 9 13.5 9C13.3674 9 13.2402 9.05268 13.1464 9.14645C13.0527 9.24021 13 9.36739 13 9.5V13H3.00012L3 9.5C3 9.36739 2.94732 9.24021 2.85355 9.14645C2.75978 9.05268 2.63261 9 2.5 9Z"></path>
  </symbol>

  <symbol id="MagnifyingGlass" viewBox="0 0 16 16">
    <path fill-rule="nonzero" d="M7.25 1.5C4.08028 1.5 1.5 4.08028 1.5 7.25C1.5 10.4197 4.08028 13 7.25 13C8.65529 13 9.94315 12.4911 10.9432 11.6503L13.6465 14.3534C13.7402 14.4471 13.8674 14.4998 14 14.4998C14.1326 14.4998 14.2598 14.4471 14.3535 14.3534C14.4473 14.2596 14.4999 14.1325 14.4999 13.9999C14.4999 13.8673 14.4473 13.7401 14.3535 13.6464L11.6504 10.9431C12.4912 9.94305 13 8.65523 13 7.25C13 4.08028 10.4197 1.5 7.25 1.5ZM7.25 2.5C9.87928 2.5 12 4.62072 12 7.25C12 8.56227 11.4715 9.74761 10.6154 10.6061C10.6132 10.607 10.611 10.6079 10.6089 10.6088C10.608 10.611 10.6071 10.6132 10.6062 10.6154C9.74772 11.4715 8.5623 12 7.25 12C4.62072 12 2.5 9.87928 2.5 7.25C2.5 4.62072 4.62072 2.5 7.25 2.5Z"></path>
  </symbol>

  <symbol id="Globe" viewBox="0 0 16 16">
    <path fill-rule="nonzero" d="M8 2.5C11.0435 2.5 13.5 4.95647 13.5 8C13.5 11.0435 11.0435 13.5 8 13.5C4.95647 13.5 2.5 11.0435 2.5 8C2.5 4.95647 4.95647 2.5 8 2.5ZM8 2.6626C8.18743 2.6626 8.38741 2.74565 8.6217 2.97705C8.856 3.20845 9.10002 3.58333 9.30811 4.06921C9.72428 5.04098 10 6.44599 10 8.00012C10 9.55422 9.72429 10.9593 9.30811 11.931C9.10001 12.4169 8.856 12.7918 8.6217 13.0232C8.3874 13.2546 8.18743 13.3376 8 13.3376C7.81257 13.3376 7.61259 13.2546 7.3783 13.0232C7.144 12.7918 6.89999 12.4169 6.69189 11.931C6.27571 10.9593 6 9.55422 6 8.00012C6 6.44599 6.27572 5.04098 6.69189 4.06921C6.89998 3.58333 7.144 3.20845 7.3783 2.97705C7.61259 2.74565 7.81257 2.6626 8 2.6626Z M8 1.5C4.41604 1.5 1.5 4.41604 1.5 8C1.5 11.5839 4.41603 14.5 8 14.5C11.5839 14.5 14.5 11.5839 14.5 8C14.5 4.41603 11.5839 1.5 8 1.5ZM8 1.6626C7.49709 1.6626 7.03943 1.90624 6.67554 2.26562C6.31165 2.62501 6.01691 3.10505 5.77258 3.67554C5.28394 4.81652 5 6.33026 5 8.00012C5 9.66995 5.28394 11.1837 5.77258 12.3247C6.01691 12.8952 6.31165 13.3752 6.67554 13.7346C7.03943 14.094 7.49708 14.3376 8 14.3376C8.50292 14.3376 8.96057 14.094 9.32446 13.7346C9.68835 13.3752 9.98309 12.8952 10.2274 12.3247C10.7161 11.1837 11 9.66995 11 8.00012C11 6.33026 10.7161 4.81652 10.2274 3.67554C9.98309 3.10505 9.68835 2.62501 9.32446 2.26562C8.96057 1.90624 8.50291 1.6626 8 1.6626ZM2.34375 5.5C2.21114 5.5 2.08396 5.55268 1.9902 5.64645C1.89643 5.74021 1.84375 5.86739 1.84375 6C1.84375 6.13261 1.89643 6.25979 1.9902 6.35355C2.08396 6.44732 2.21114 6.5 2.34375 6.5H13.6562C13.7889 6.5 13.916 6.44732 14.0098 6.35355C14.1036 6.25979 14.1562 6.13261 14.1562 6C14.1562 5.86739 14.1036 5.74021 14.0098 5.64645C13.916 5.55268 13.7889 5.5 13.6562 5.5H2.34375ZM2.34375 9.5C2.21114 9.5 2.08396 9.55268 1.9902 9.64645C1.89643 9.74021 1.84375 9.86739 1.84375 10C1.84375 10.1326 1.89643 10.2598 1.9902 10.3536C2.08396 10.4473 2.21114 10.5 2.34375 10.5H13.6562C13.7889 10.5 13.916 10.4473 14.0098 10.3536C14.1036 10.2598 14.1562 10.1326 14.1562 10C14.1562 9.86739 14.1036 9.74021 14.0098 9.64645C13.916 9.55268 13.7889 9.5 13.6562 9.5H2.34375Z"></path>
  </symbol>

  <symbol id="Question" viewBox="0 0 16 16">
    <path fill-rule="nonzero" d="M8.07349 4.50134C7.75062 4.49155 7.43049 4.55078 7.13904 4.67151C6.36183 4.99344 5.75017 5.76895 5.75 6.74988C5.74997 6.88249 5.80262 7.00968 5.89636 7.10347C5.99011 7.19726 6.11727 7.24997 6.24988 7.25C6.31554 7.25002 6.38056 7.2371 6.44123 7.21199C6.5019 7.18687 6.55703 7.15006 6.60347 7.10364C6.64991 7.05722 6.68675 7.00211 6.71189 6.94145C6.73704 6.8808 6.74998 6.81578 6.75 6.75012C6.75013 6.17215 7.08092 5.77793 7.52173 5.59534C7.96254 5.41275 8.47515 5.45759 8.88391 5.86621C9.24251 6.22468 9.34907 6.75995 9.15503 7.22839C8.96099 7.69684 8.50716 8.00009 8.00012 8C7.93445 7.99999 7.86942 8.01292 7.80875 8.03804C7.74808 8.06316 7.69295 8.09999 7.6465 8.14642C7.60006 8.19285 7.56322 8.24797 7.53809 8.30864C7.51295 8.36931 7.50001 8.43433 7.5 8.5V9C7.5 9.13261 7.55268 9.25979 7.64645 9.35355C7.74021 9.44732 7.86739 9.5 8 9.5C8.13261 9.5 8.25979 9.44732 8.35355 9.35355C8.44732 9.25979 8.5 9.13261 8.5 9V8.93738C9.1999 8.77686 9.79665 8.2924 10.0789 7.61108C10.4266 6.77156 10.2336 5.80137 9.59094 5.15894C9.15735 4.7255 8.61159 4.51766 8.07349 4.50134Z M8 12C8.41419 12 8.75 11.6642 8.75 11.25C8.75 10.8358 8.41419 10.5 8 10.5C7.58581 10.5 7.25 10.8358 7.25 11.25C7.25 11.6642 7.58581 12 8 12Z M8 1.5C4.41604 1.5 1.5 4.41604 1.5 8C1.5 11.5839 4.41603 14.5 8 14.5C11.5839 14.5 14.5 11.5839 14.5 8C14.5 4.41603 11.5839 1.5 8 1.5ZM8 2.5C11.0435 2.5 13.5 4.95647 13.5 8C13.5 11.0435 11.0435 13.5 8 13.5C4.95647 13.5 2.5 11.0435 2.5 8C2.5 4.95647 4.95647 2.5 8 2.5Z"></path>
  </symbol>

  <symbol id="UsersThree" viewBox="0 0 16 16">
    <path fill-rule="nonzero" d="M3.68726 2.76918C3.00369 2.77619 2.31788 3.05605 1.8208 3.65761C0.919321 4.74857 1.17576 6.24775 2.08557 7.09572C1.40673 7.38504 0.802933 7.84404 0.349488 8.4507C0.310181 8.50329 0.281619 8.56312 0.265432 8.62675C0.249245 8.69038 0.24575 8.75658 0.255147 8.82157C0.264544 8.88656 0.286648 8.94905 0.320199 9.00549C0.353749 9.06194 0.398088 9.11122 0.450684 9.15053C0.503281 9.18983 0.563104 9.21839 0.626738 9.23458C0.690373 9.25077 0.756572 9.25426 0.821558 9.24487C0.886543 9.23547 0.949041 9.21337 1.00548 9.17981C1.06193 9.14626 1.11121 9.10193 1.15051 9.04933C1.76315 8.2297 2.72586 7.74834 3.74915 7.75001C3.74907 7.75005 3.74923 7.74997 3.74915 7.75001C3.74953 7.75001 3.75011 7.75001 3.75049 7.75001C3.87664 7.74769 3.99725 7.69777 4.08814 7.61024C4.09539 7.60337 4.10243 7.59629 4.10925 7.589C4.19691 7.49831 4.24706 7.37783 4.24963 7.25172C4.24951 7.252 4.24976 7.25144 4.24963 7.25172C4.24959 7.25147 4.24992 7.25038 4.24988 7.25013C4.24984 7.25034 4.24992 7.24993 4.24988 7.25013C4.24976 7.24984 4.24976 7.24894 4.24963 7.24865C4.24718 7.12237 4.19703 7.0017 4.10925 6.91088C4.10254 6.90377 4.09562 6.89685 4.0885 6.89013C3.99767 6.80248 3.87706 6.75243 3.75086 6.75001C3.75044 6.75001 3.75005 6.75014 3.74963 6.75014C3.74967 6.75018 3.74959 6.7501 3.74963 6.75014C2.44509 6.75147 1.76078 5.30012 2.59168 4.29457C3.42258 3.28902 4.97671 3.68735 5.22131 4.96876C5.23363 5.03326 5.25853 5.09471 5.29459 5.14958C5.33066 5.20446 5.37718 5.25169 5.4315 5.28859C5.48582 5.32549 5.54687 5.35132 5.61118 5.36462C5.67548 5.37792 5.74178 5.37843 5.80628 5.3661C5.93651 5.34123 6.05154 5.26564 6.12605 5.15596C6.20057 5.04629 6.22847 4.91151 6.20361 4.78126C5.95974 3.50367 4.82653 2.7575 3.68726 2.76918Z M12.3127 2.76918C11.1735 2.7575 10.0403 3.50367 9.79639 4.78126C9.77154 4.91151 9.79943 5.04629 9.87395 5.15596C9.94846 5.26564 10.0635 5.34123 10.1937 5.3661C10.2582 5.37843 10.3245 5.37792 10.3888 5.36462C10.4531 5.35132 10.5142 5.32549 10.5685 5.28859C10.6228 5.25169 10.6693 5.20446 10.7054 5.14958C10.7415 5.09471 10.7664 5.03326 10.7787 4.96876C11.0233 3.68735 12.5774 3.28902 13.4083 4.29457C14.2392 5.30012 13.555 6.75134 12.2505 6.75001C12.2505 6.74997 12.2504 6.75005 12.2505 6.75001C12.25 6.75001 12.2496 6.75001 12.2491 6.75001C12.1871 6.76292 12.1282 6.78748 12.0753 6.8224C12.0115 6.83534 11.9508 6.86064 11.8966 6.89686C11.8603 6.95112 11.835 7.01196 11.8221 7.07594C11.7873 7.12872 11.7629 7.18762 11.75 7.24952C11.75 7.24931 11.7501 7.24973 11.75 7.24952C11.75 7.24976 11.7501 7.25064 11.75 7.25088C11.7629 7.31289 11.7875 7.37187 11.8224 7.42471C11.8353 7.48856 11.8606 7.54927 11.8969 7.60342C11.9511 7.63969 12.0119 7.66499 12.0759 7.67788C12.1287 7.71269 12.1876 7.73717 12.2495 7.75003C12.2499 7.75003 12.2502 7.7499 12.2506 7.7499C12.2505 7.74986 12.2507 7.74994 12.2506 7.7499C13.2738 7.7481 14.237 8.22964 14.8495 9.04934C14.8888 9.10194 14.9381 9.14628 14.9945 9.17983C15.051 9.21338 15.1135 9.23548 15.1785 9.24488C15.2434 9.25428 15.3096 9.25078 15.3733 9.2346C15.4369 9.21841 15.4967 9.18985 15.5493 9.15054C15.6019 9.11123 15.6463 9.06195 15.6798 9.00551C15.7134 8.94907 15.7355 8.88657 15.7449 8.82158C15.7543 8.7566 15.7508 8.6904 15.7346 8.62676C15.7184 8.56313 15.6898 8.50331 15.6505 8.45071C15.1971 7.844 14.5934 7.38493 13.9146 7.09561C14.8243 6.24762 15.0806 4.74853 14.1792 3.65762C13.6821 3.05606 12.9962 2.77619 12.3127 2.76918Z M8 5.75001C6.34908 5.75001 5 7.0991 5 8.75001C5 9.72266 5.47549 10.5819 6.19788 11.1309C5.23485 11.5518 4.42849 12.3022 3.95068 13.2808C3.92187 13.3398 3.90497 13.4039 3.90093 13.4694C3.8969 13.535 3.90582 13.6007 3.92717 13.6628C3.94853 13.7249 3.98191 13.7821 4.0254 13.8313C4.0689 13.8805 4.12165 13.9207 4.18067 13.9495C4.29982 14.0076 4.4372 14.0161 4.56258 13.9729C4.68796 13.9298 4.79107 13.8386 4.84924 13.7195C5.43767 12.5144 6.65894 11.7517 8 11.7517C9.34106 11.7517 10.5623 12.5144 11.1508 13.7195C11.2089 13.8386 11.312 13.9298 11.4374 13.9729C11.5628 14.0161 11.7002 14.0076 11.8193 13.9495C11.8783 13.9207 11.9311 13.8805 11.9746 13.8313C12.0181 13.7821 12.0515 13.7249 12.0728 13.6628C12.0942 13.6007 12.1031 13.535 12.0991 13.4694C12.095 13.4039 12.0781 13.3398 12.0493 13.2808C11.5715 12.3022 10.7652 11.5518 9.80212 11.1309C10.5245 10.5819 11 9.72266 11 8.75001C11 7.0991 9.65092 5.75001 8 5.75001ZM8 6.75001C9.11046 6.75001 10 7.63956 10 8.75001C10 9.86047 9.11046 10.75 8 10.75C6.88955 10.75 6 9.86047 6 8.75001C6 7.63956 6.88955 6.75001 8 6.75001Z"></path>
  </symbol>
</svg>
